<svg width="80" height="80" viewBox="0 0 80 80" fill="none" xmlns="http://www.w3.org/2000/svg">
<rect width="80" height="80" rx="12" fill="#F0FFEF"/>
<path d="M49.6 49.6C47.824 49.6 46.4 51.024 46.4 52.8C46.4 53.6487 46.7371 54.4626 47.3373 55.0627C47.9374 55.6628 48.7513 56 49.6 56C50.4487 56 51.2626 55.6628 51.8627 55.0627C52.4629 54.4626 52.8 53.6487 52.8 52.8C52.8 51.9513 52.4629 51.1373 51.8627 50.5372C51.2626 49.9371 50.4487 49.6 49.6 49.6ZM24 24V27.2H27.2L32.96 39.344L30.784 43.264C30.544 43.712 30.4 44.24 30.4 44.8C30.4 45.6487 30.7371 46.4626 31.3373 47.0627C31.9374 47.6628 32.7513 48 33.6 48H52.8V44.8H34.272C34.1659 44.8 34.0642 44.7578 33.9892 44.6828C33.9141 44.6078 33.872 44.5061 33.872 44.4C33.872 44.32 33.888 44.256 33.92 44.208L35.36 41.6H47.28C48.48 41.6 49.536 40.928 50.08 39.952L55.808 29.6C55.92 29.344 56 29.072 56 28.8C56 28.3756 55.8314 27.9687 55.5314 27.6686C55.2313 27.3685 54.8243 27.2 54.4 27.2H30.736L29.232 24M33.6 49.6C31.824 49.6 30.4 51.024 30.4 52.8C30.4 53.6487 30.7371 54.4626 31.3373 55.0627C31.9374 55.6628 32.7513 56 33.6 56C34.4487 56 35.2626 55.6628 35.8627 55.0627C36.4629 54.4626 36.8 53.6487 36.8 52.8C36.8 51.9513 36.4629 51.1373 35.8627 50.5372C35.2626 49.9371 34.4487 49.6 33.6 49.6Z" fill="#30C423"/>
</svg>
