<svg width="60" height="60" viewBox="0 0 60 60" fill="none" xmlns="http://www.w3.org/2000/svg">
<rect width="60" height="60" rx="30" fill="white"/>
<path d="M37.938 25.9999H39C39.5304 25.9999 40.0391 26.2106 40.4142 26.5857C40.7893 26.9608 41 27.4695 41 27.9999V31.9999C41 32.5303 40.7893 33.039 40.4142 33.4141C40.0391 33.7892 39.5304 33.9999 39 33.9999H37.938C37.6942 35.9332 36.7533 37.7111 35.2917 38.9999C33.8302 40.2887 31.9486 40.9999 30 40.9999V38.9999C31.5913 38.9999 33.1174 38.3678 34.2426 37.2425C35.3679 36.1173 36 34.5912 36 32.9999V26.9999C36 25.4086 35.3679 23.8825 34.2426 22.7573C33.1174 21.632 31.5913 20.9999 30 20.9999C28.4087 20.9999 26.8826 21.632 25.7574 22.7573C24.6321 23.8825 24 25.4086 24 26.9999V33.9999H21C20.4696 33.9999 19.9609 33.7892 19.5858 33.4141C19.2107 33.039 19 32.5303 19 31.9999V27.9999C19 27.4695 19.2107 26.9608 19.5858 26.5857C19.9609 26.2106 20.4696 25.9999 21 25.9999H22.062C22.306 24.0668 23.2471 22.2892 24.7086 21.0006C26.1701 19.712 28.0516 19.001 30 19.001C31.9484 19.001 33.8299 19.712 35.2914 21.0006C36.7529 22.2892 37.694 24.0668 37.938 25.9999ZM21 27.9999V31.9999H22V27.9999H21ZM38 27.9999V31.9999H39V27.9999H38ZM25.76 33.7849L26.82 32.0889C27.7731 32.6859 28.8754 33.0017 30 32.9999C31.1246 33.0017 32.2269 32.6859 33.18 32.0889L34.24 33.7849C32.9693 34.581 31.4995 35.0022 30 34.9999C28.5005 35.0023 27.0307 34.5811 25.76 33.7849Z" fill="black"/>
</svg>
