<svg width="40" height="40" viewBox="0 0 40 40" fill="none" xmlns="http://www.w3.org/2000/svg">
<circle cx="25" cy="24" r="10.5" fill="#D2FF31" stroke="#282B2F"/>
<path d="M25 31.5V34" stroke="#282B2F" stroke-linecap="round"/>
<path d="M35.5 24L32 24" stroke="#282B2F" stroke-linecap="round"/>
<mask id="mask0_1716_44" style="mask-type:alpha" maskUnits="userSpaceOnUse" x="15" y="14" width="20" height="20">
<circle cx="25" cy="24" r="10" fill="#D2FF31"/>
</mask>
<g mask="url(#mask0_1716_44)">
<rect x="7" y="7" width="23" height="23" rx="4" fill="#AFE000"/>
</g>
<rect x="5" y="5" width="23" height="23" rx="4" fill="#282B2F"/>
<rect x="4.5" y="4.5" width="21.9091" height="21.9091" rx="2.5" fill="#F6FEDB" stroke="#282B2F"/>
<path d="M20.54 17.8806C20.8025 17.2431 20.945 16.5606 20.945 15.8106C20.945 15.2706 20.8625 14.7531 20.72 14.2731C20.2325 14.3856 19.7225 14.4456 19.19 14.4456C18.0995 14.4467 17.0247 14.1857 16.0561 13.6845C15.0876 13.1833 14.2538 12.4565 13.625 11.5656C12.953 13.1936 11.6838 14.5031 10.0775 15.2256C10.0475 15.4131 10.0475 15.6156 10.0475 15.8106C10.0475 16.5266 10.1885 17.2356 10.4625 17.8971C10.7366 18.5587 11.1382 19.1598 11.6445 19.6661C12.667 20.6886 14.0539 21.2631 15.5 21.2631C16.2875 21.2631 17.045 21.0906 17.7275 20.7831C18.155 21.6006 18.35 22.0056 18.335 22.0056C17.105 22.4181 16.1525 22.6206 15.5 22.6206C13.685 22.6206 11.9525 21.9081 10.6775 20.6256C9.90129 19.853 9.3247 18.9032 8.9975 17.8581H8V14.4456H8.8175C9.06518 13.24 9.63462 12.1239 10.4654 11.2158C11.2962 10.3076 12.3573 9.64137 13.5361 9.28764C14.715 8.9339 15.9677 8.9059 17.1611 9.2066C18.3546 9.5073 19.4445 10.1255 20.315 10.9956C21.2598 11.9373 21.9045 13.1378 22.1675 14.4456H23V17.8581H22.955L20.285 20.3106L16.31 19.8606V18.6081H19.9325L20.54 17.8806Z" fill="#AFE000"/>
<path d="M14.0524 15.8931C13.8949 15.7281 13.6774 15.6381 13.4524 15.6381C12.9799 15.6381 12.5974 16.0206 12.5974 16.4931C12.5974 16.9656 12.9799 17.3406 13.4524 17.3406C13.6774 17.3406 13.8949 17.2506 14.0524 17.0931C14.2107 16.9335 14.2995 16.7178 14.2995 16.4931C14.2995 16.2683 14.2107 16.0526 14.0524 15.8931Z" fill="#282B2F"/>
<path d="M18.3874 16.4931C18.3874 16.0206 18.0124 15.6381 17.5399 15.6381C17.3132 15.6381 17.0957 15.7281 16.9353 15.8885C16.775 16.0488 16.6849 16.2663 16.6849 16.4931C16.6849 16.9656 17.0674 17.3406 17.5399 17.3406C18.0124 17.3406 18.3874 16.9656 18.3874 16.4931Z" fill="#282B2F"/>
</svg>
