<svg width="48" height="48" viewBox="0 0 48 48" fill="none" xmlns="http://www.w3.org/2000/svg">
<path d="M38 7H33.05H31H10C9.46957 7 8.96086 7.21071 8.58579 7.58579C8.21071 7.96086 8 8.46957 8 9V42C8 42.5304 8.21071 43.0391 8.58579 43.4142C8.96086 43.7893 9.46957 44 10 44H38C38.5304 44 39.0391 43.7893 39.4142 43.4142C39.7893 43.0391 40 42.5304 40 42V9C40 8.46957 39.7893 7.96086 39.4142 7.58579C39.0391 7.21071 38.5304 7 38 7Z" stroke="#282B2F" stroke-width="4" stroke-linejoin="round"/>
<circle cx="15" cy="16" r="2" fill="#282B2F"/>
<circle cx="15" cy="25" r="2" fill="#282B2F"/>
<circle cx="15" cy="34" r="2" fill="#282B2F"/>
<path d="M21 16H33" stroke="#B6E900" stroke-width="4" stroke-linecap="round"/>
<path d="M21 25H33" stroke="#B6E900" stroke-width="4" stroke-linecap="round"/>
<path d="M21 34H33" stroke="#B6E900" stroke-width="4" stroke-linecap="round"/>
</svg>
