<svg width="40" height="40" viewBox="0 0 40 40" fill="none" xmlns="http://www.w3.org/2000/svg">
<rect width="40" height="40" fill="white"/>
<path d="M34.7345 19.3519L25.8673 14.1359L17 19.3519V29.784L25.8673 35L34.7345 29.784V19.3519Z" fill="#D2FF31" stroke="#282B2F" stroke-linejoin="round"/>
<mask id="mask0_1716_88" style="mask-type:alpha" maskUnits="userSpaceOnUse" x="17" y="14" width="18" height="21">
<path d="M34.7345 19.3519L25.8673 14.1359L17 19.3519V29.784L25.8673 35L34.7345 29.784V19.3519Z" fill="#AFE000"/>
</mask>
<g mask="url(#mask0_1716_88)">
<rect x="7" y="7" width="22" height="23" rx="4" fill="#AFE000"/>
</g>
<path d="M34.7345 19.3519L25.8673 14.1359L17 19.3519V29.784L25.8673 35L34.7345 29.784V19.3519Z" stroke="#282B2F" stroke-linejoin="round"/>
<rect x="5" y="5" width="22" height="23" rx="4" fill="#282B2F"/>
<path d="M20.5686 18.0118C19.8322 17.2139 18.9385 16.5772 17.9439 16.1417C16.9493 15.7062 15.8753 15.4813 14.7895 15.4813C13.7038 15.4813 12.6298 15.7062 11.6352 16.1417C10.6406 16.5772 9.74692 17.2139 9.01052 18.0118C8.89645 18.1373 8.8328 18.3005 8.83179 18.4701V21.2198C8.8342 21.4005 8.90769 21.573 9.03634 21.7C9.165 21.8269 9.33848 21.8981 9.51922 21.8981H20.0599C20.2422 21.8981 20.417 21.8257 20.546 21.6967C20.6749 21.5678 20.7473 21.393 20.7473 21.2106V18.4609C20.7441 18.2945 20.6806 18.1349 20.5686 18.0118Z" fill="#AFE000"/>
<path d="M14.7896 14.5655C16.5613 14.5655 17.9976 13.1292 17.9976 11.3574C17.9976 9.58569 16.5613 8.14941 14.7896 8.14941C13.0178 8.14941 11.5815 9.58569 11.5815 11.3574C11.5815 13.1292 13.0178 14.5655 14.7896 14.5655Z" fill="#AFE000"/>
<rect x="4.5" y="4.5" width="21" height="22" rx="2.5" fill="#F6FEDB" stroke="#282B2F"/>
<path d="M14.5 13.3333V22M20 9V22M9 17.6667V22" stroke="#AFE000" stroke-width="2" stroke-linecap="round" stroke-linejoin="round"/>
</svg>
