<svg width="80" height="80" viewBox="0 0 80 80" fill="none" xmlns="http://www.w3.org/2000/svg">
<rect width="80" height="80" rx="12" fill="#FFF1F1"/>
<path d="M39.7778 24C30 24 22 30.4 22 38.2222C22 41.9556 23.7778 45.5111 26.9778 48C26.9778 49.0667 26.2667 51.9111 22 56C22 56 28.2222 56 33.5556 51.5556C35.5111 52.0889 37.6444 52.4444 39.7778 52.4444C49.5556 52.4444 57.5556 46.0444 57.5556 38.2222C57.5556 30.4 49.5556 24 39.7778 24ZM41.5556 45.3333H38V41.7778H41.5556V45.3333ZM44.7556 36.4444C44.2222 37.1556 43.5111 37.5111 42.8 37.8667C42.2667 38.2222 42.0889 38.4 41.9111 38.7556C41.5556 39.1111 41.5556 39.4667 41.5556 40H38C38 39.1111 38.1778 38.5778 38.5333 38.0444C38.8889 37.6889 39.6 37.1556 40.4889 36.6222C41.0222 36.4444 41.3778 36.0889 41.5556 35.7333C41.7333 35.3778 41.9111 34.8444 41.9111 34.4889C41.9111 33.9556 41.7333 33.6 41.3778 33.2444C41.0222 32.8889 40.4889 32.7111 39.9556 32.7111C39.4222 32.7111 39.0667 32.8889 38.7111 33.0667C38.3556 33.2444 38.1778 33.6 38.1778 34.1333H34.6222C34.8 32.8889 35.3333 31.8222 36.2222 31.1111C37.1111 30.4 38.3556 30.2222 39.9556 30.2222C41.5556 30.2222 42.9778 30.5778 43.8667 31.2889C44.7556 32 45.2889 33.0667 45.2889 34.3111C45.4667 35.0222 45.2889 35.7333 44.7556 36.4444Z" fill="#EF3838"/>
</svg>
