<svg width="80" height="80" viewBox="0 0 80 80" fill="none" xmlns="http://www.w3.org/2000/svg">
<rect width="80" height="80" rx="12" fill="#FAEFFF"/>
<path d="M40.4 48L42.64 45.76L40.12 43.2H46.8V40H40.12L42.64 37.44L40.4 35.2L34 41.6L40.4 48ZM29.2 56C28.32 56 27.5669 55.6869 26.9408 55.0608C26.3147 54.4347 26.0011 53.6811 26 52.8V30.4C26 29.52 26.3136 28.7669 26.9408 28.1408C27.568 27.5147 28.3211 27.2011 29.2 27.2H35.92C36.2667 26.24 36.8469 25.4667 37.6608 24.88C38.4747 24.2933 39.3877 24 40.4 24C41.4123 24 42.3259 24.2933 43.1408 24.88C43.9557 25.4667 44.5355 26.24 44.88 27.2H51.6C52.48 27.2 53.2336 27.5136 53.8608 28.1408C54.488 28.768 54.8011 29.5211 54.8 30.4V52.8C54.8 53.68 54.4869 54.4336 53.8608 55.0608C53.2347 55.688 52.4811 56.0011 51.6 56H29.2ZM40.4 29.2C40.7467 29.2 41.0336 29.0864 41.2608 28.8592C41.488 28.632 41.6011 28.3456 41.6 28C41.5989 27.6544 41.4853 27.368 41.2592 27.1408C41.0331 26.9136 40.7467 26.8 40.4 26.8C40.0533 26.8 39.7669 26.9136 39.5408 27.1408C39.3147 27.368 39.2011 27.6544 39.2 28C39.1989 28.3456 39.3125 28.6325 39.5408 28.8608C39.7691 29.0891 40.0555 29.2021 40.4 29.2Z" fill="#AE21F0"/>
</svg>
