<svg width="56" height="57" viewBox="0 0 56 57" fill="none" xmlns="http://www.w3.org/2000/svg">
<rect width="56" height="57.0002" rx="28" fill="white"/>
<path d="M28 18C28.31 18 28.613 18.028 28.908 18.082C28.3018 18.4848 27.7671 18.9861 27.326 19.565C26.8549 19.6575 26.4079 19.8459 26.0128 20.1185C25.6176 20.3911 25.2827 20.7421 25.029 21.1496C24.7752 21.5571 24.6079 22.0124 24.5376 22.4873C24.4672 22.9622 24.4953 23.4464 24.62 23.91C24.6542 24.0372 24.6543 24.1712 24.6202 24.2985C24.5862 24.4258 24.5192 24.5418 24.426 24.635L19.5 29.561V32.5H21.5V30.75C21.5 30.5511 21.579 30.3603 21.7197 30.2197C21.8603 30.079 22.0511 30 22.25 30H24.5V28.75C24.5002 28.5512 24.5793 28.3605 24.72 28.22L26.635 26.305C26.858 26.771 27.135 27.206 27.458 27.603L26 29.06V30.749C26 30.9479 25.921 31.1387 25.7803 31.2793C25.6397 31.42 25.4489 31.499 25.25 31.499H23V33.249C23 33.4479 22.921 33.6387 22.7803 33.7793C22.6397 33.92 22.4489 33.999 22.25 33.999H18.75C18.5511 33.999 18.3603 33.92 18.2197 33.7793C18.079 33.6387 18 33.4479 18 33.249V29.249C18.0002 29.0502 18.0793 28.8595 18.22 28.719L23.075 23.864C22.9489 23.1452 22.9817 22.4075 23.171 21.7027C23.3603 20.998 23.7017 20.3432 24.171 19.7843C24.6404 19.2255 25.2263 18.7762 25.8878 18.4679C26.5493 18.1597 27.2702 18 28 18ZM32.5 19.5C31.6088 19.4997 30.743 19.797 30.04 20.3447C29.337 20.8925 28.837 21.6593 28.6195 22.5236C28.4019 23.3878 28.4792 24.2999 28.8391 25.1153C29.199 25.9306 29.8208 26.6024 30.606 27.024C30.7251 27.0882 30.8246 27.1835 30.894 27.2997C30.9633 27.4159 31 27.5487 31 27.684V35.418L33.017 37.252L35.14 35.453L34.219 34.529C34.0792 34.3885 34.0007 34.1983 34.0007 34C34.0007 33.8017 34.0792 33.6115 34.219 33.471L35.186 32.5L34.219 31.53C34.0787 31.3893 33.9999 31.1987 34 31V27.684C34 27.5487 34.0367 27.4159 34.106 27.2997C34.1754 27.1835 34.2749 27.0882 34.394 27.024C35.1792 26.6024 35.801 25.9306 36.1609 25.1153C36.5208 24.2999 36.5981 23.3878 36.3805 22.5236C36.163 21.6593 35.663 20.8925 34.96 20.3447C34.257 19.797 33.3912 19.4997 32.5 19.5ZM27 23.5C27 22.547 27.2477 21.6103 27.7187 20.7819C28.1898 19.9534 28.868 19.2615 29.6869 18.7741C30.5058 18.2866 31.4373 18.0204 32.3902 18.0013C33.343 17.9823 34.2844 18.2112 35.1221 18.6655C35.9599 19.1199 36.6652 19.7841 37.1689 20.5931C37.6726 21.4021 37.9575 22.3281 37.9956 23.2803C38.0337 24.2326 37.8237 25.1784 37.3862 26.0251C36.9487 26.8717 36.2988 27.5902 35.5 28.11V30.69L36.776 31.97C36.9164 32.1106 36.9953 32.3012 36.9953 32.5C36.9953 32.6988 36.9164 32.8894 36.776 33.03L35.809 34L36.776 34.97C36.8492 35.0434 36.9064 35.1311 36.944 35.2277C36.9816 35.3242 36.9988 35.4275 36.9945 35.5311C36.9902 35.6346 36.9644 35.7361 36.9189 35.8292C36.8734 35.9223 36.8091 36.005 36.73 36.072L33.485 38.822C33.3461 38.9399 33.169 39.0032 32.9868 39.0001C32.8046 38.997 32.6298 38.9276 32.495 38.805L29.745 36.305C29.6678 36.2347 29.6061 36.149 29.5639 36.0534C29.5217 35.9578 29.4999 35.8545 29.5 35.75V28.11C28.7322 27.6107 28.1013 26.9275 27.6647 26.1224C27.2281 25.3173 26.9996 24.4159 27 23.5ZM33.5 22.5C33.5 22.7652 33.3946 23.0196 33.2071 23.2071C33.0196 23.3946 32.7652 23.5 32.5 23.5C32.2348 23.5 31.9804 23.3946 31.7929 23.2071C31.6054 23.0196 31.5 22.7652 31.5 22.5C31.5 22.2348 31.6054 21.9804 31.7929 21.7929C31.9804 21.6054 32.2348 21.5 32.5 21.5C32.7652 21.5 33.0196 21.6054 33.2071 21.7929C33.3946 21.9804 33.5 22.2348 33.5 22.5Z" fill="black"/>
</svg>
