<svg width="80" height="80" viewBox="0 0 80 80" fill="none" xmlns="http://www.w3.org/2000/svg">
<rect width="80" height="80" rx="12" fill="#FFF1FE"/>
<path d="M40 23.9999C41.3634 23.9999 42.6692 24.544 43.6277 25.5074L44.7447 26.6243C45.1041 26.9816 45.5901 27.1824 46.0969 27.1828H47.6971C49.0552 27.1828 50.3577 27.7223 51.318 28.6826C52.2784 29.643 52.8179 30.9455 52.8179 32.3036V33.9038C52.8179 34.4095 53.0195 34.8959 53.3732 35.2528L54.4901 36.3698C54.9684 36.8454 55.3479 37.4108 55.6071 38.0335C55.8662 38.6562 55.9997 39.324 56 39.9984C56.0003 40.6729 55.8673 41.3408 55.6088 41.9637C55.3502 42.5867 54.9712 43.1524 54.4933 43.6284L53.3764 44.7454C53.0191 45.1048 52.8183 45.5908 52.8179 46.0976V47.6978C52.8179 49.0559 52.2784 50.3584 51.318 51.3187C50.3577 52.2791 49.0552 52.8186 47.6971 52.8186H46.0969C45.5917 52.819 45.107 53.0185 44.7479 53.3739L43.6309 54.4908C43.1553 54.9691 42.5899 55.3486 41.9672 55.6077C41.3445 55.8669 40.6767 56.0004 40.0023 56.0007C39.3278 56.001 38.6599 55.868 38.037 55.6095C37.414 55.3509 36.8483 54.9718 36.3723 54.494L35.2553 53.3771C34.8959 53.0198 34.4099 52.819 33.9031 52.8186H32.3029C30.9448 52.8186 29.6423 52.2791 28.6819 51.3187C27.7216 50.3584 27.1821 49.0559 27.1821 47.6978V46.0976C27.1817 45.5924 26.9822 45.1077 26.6268 44.7486L25.5099 43.6316C25.0316 43.156 24.6521 42.5906 24.3929 41.9679C24.1338 41.3452 24.0003 40.6774 24 40.003C23.9997 39.3285 24.1327 38.6606 24.3912 38.0377C24.6498 37.4147 25.0288 36.849 25.5067 36.373L26.6236 35.256C26.9809 34.8966 27.1817 34.4106 27.1821 33.9038V32.3036L27.1901 32.0123C27.2645 30.7067 27.8356 29.479 28.7862 28.581C29.7369 27.683 30.9951 27.1827 32.3029 27.1828H33.9031C34.4083 27.1824 34.893 26.9829 35.2521 26.6275L36.3691 25.5106C36.8449 25.0319 37.4106 24.652 38.0337 24.3928C38.6569 24.1335 39.3251 24 40 23.9999ZM43.9846 41.5849C43.348 41.5849 42.7374 41.8378 42.2873 42.288C41.8371 42.7381 41.5842 43.3487 41.5842 43.9853C41.5842 44.6219 41.8371 45.2324 42.2873 45.6826C42.7374 46.1327 43.348 46.3856 43.9846 46.3856C44.6212 46.3856 45.2317 46.1327 45.6819 45.6826C46.132 45.2324 46.3849 44.6219 46.3849 43.9853C46.3849 43.3487 46.132 42.7381 45.6819 42.288C45.2317 41.8378 44.6212 41.5849 43.9846 41.5849ZM45.9161 34.0526C45.616 33.7526 45.209 33.5841 44.7847 33.5841C44.3604 33.5841 43.9534 33.7526 43.6533 34.0526L34.0519 43.654C33.7604 43.9558 33.5991 44.3601 33.6028 44.7796C33.6064 45.1992 33.7747 45.6006 34.0714 45.8973C34.3681 46.194 34.7695 46.3623 35.1891 46.3659C35.6086 46.3696 36.0128 46.2083 36.3147 45.9168L45.9161 36.3154C46.2161 36.0153 46.3846 35.6083 46.3846 35.184C46.3846 34.7597 46.2161 34.3527 45.9161 34.0526ZM35.9834 33.5837C35.3468 33.5837 34.7363 33.8366 34.2861 34.2868C33.8359 34.7369 33.5831 35.3475 33.5831 35.9841C33.5831 36.6207 33.8359 37.2313 34.2861 37.6814C34.7363 38.1316 35.3468 38.3845 35.9834 38.3845C36.62 38.3845 37.2306 38.1316 37.6807 37.6814C38.1309 37.2313 38.3838 36.6207 38.3838 35.9841C38.3838 35.3475 38.1309 34.7369 37.6807 34.2868C37.2306 33.8366 36.62 33.5837 35.9834 33.5837Z" fill="#ED13DE"/>
</svg>
