<svg width="60" height="62" viewBox="0 0 60 62" fill="none" xmlns="http://www.w3.org/2000/svg">
<rect width="60" height="62" rx="30" fill="white"/>
<path d="M26.25 34.875H26.375V34.75L26.375 33.2501C26.375 33.2501 26.375 33.2501 26.375 33.25C26.375 33.25 26.375 33.25 26.375 33.25C26.3752 33.0843 26.4411 32.9254 26.5583 32.8083C26.6755 32.6911 26.8344 32.6252 27.0001 32.625H31.5H31.625V32.5V31V30.875H31.5H27H26.9999C26.3702 30.8756 25.7665 31.126 25.3213 31.5713C24.876 32.0165 24.6256 32.6202 24.625 33.2499V33.25V34.75V34.875H24.75H26.25ZM29.25 30.375H29.2502C30.0786 30.374 30.8728 30.0444 31.4586 29.4586C32.0444 28.8728 32.374 28.0786 32.375 27.2502V27.25C32.375 26.6319 32.1917 26.0277 31.8483 25.5138C31.505 24.9999 31.0169 24.5994 30.4459 24.3629C29.8749 24.1264 29.2465 24.0645 28.6403 24.185C28.0342 24.3056 27.4773 24.6033 27.0403 25.0403C26.6033 25.4773 26.3056 26.0342 26.185 26.6403C26.0645 27.2465 26.1264 27.8749 26.3629 28.4459C26.5994 29.0169 26.9999 29.505 27.5138 29.8483C28.0277 30.1917 28.6319 30.375 29.25 30.375ZM36 35.625H36.0002C36.8286 35.624 37.6228 35.2944 38.2086 34.7086C38.7944 34.1228 39.124 33.3286 39.125 32.5002V32.5C39.125 31.8819 38.9417 31.2777 38.5983 30.7638C38.255 30.2499 37.7669 29.8494 37.1959 29.6129C36.6249 29.3764 35.9965 29.3145 35.3903 29.435C34.7842 29.5556 34.2273 29.8533 33.7903 30.2903C33.3533 30.7273 33.0556 31.2842 32.935 31.8903C32.8145 32.4965 32.8764 33.1249 33.1129 33.6959C33.3494 34.2669 33.7499 34.755 34.2638 35.0983C34.7777 35.4417 35.3819 35.625 36 35.625ZM40.5 40.125H40.625V40V38.5V38.4999C40.6244 37.8702 40.374 37.2665 39.9287 36.8213C39.4835 36.376 38.8798 36.1256 38.2501 36.125H38.25H33.75H33.7499C33.1202 36.1256 32.5165 36.376 32.0713 36.8213C31.626 37.2665 31.3756 37.8702 31.375 38.4999V38.5V40V40.125H31.5H33H33.125V40V38.5001C33.1252 38.3344 33.1911 38.1755 33.3083 38.0583C33.4255 37.9411 33.5844 37.8752 33.7501 37.875H38.2499C38.4156 37.8752 38.5745 37.9411 38.6917 38.0583C38.8089 38.1755 38.8748 38.3344 38.875 38.5001V40V40.125H39H40.5ZM28.4861 26.1067C28.7122 25.9556 28.9781 25.875 29.25 25.875C29.6146 25.8754 29.9641 26.0204 30.2218 26.2782C30.4796 26.536 30.6246 26.8855 30.625 27.2501C30.625 27.522 30.5443 27.7878 30.3933 28.0139C30.2422 28.24 30.0274 28.4163 29.7762 28.5203C29.5249 28.6244 29.2485 28.6516 28.9818 28.5986C28.715 28.5455 28.47 28.4146 28.2777 28.2223C28.0854 28.03 27.9545 27.785 27.9014 27.5183C27.8484 27.2515 27.8756 26.9751 27.9797 26.7238C28.0837 26.4726 28.26 26.2578 28.4861 26.1067ZM35.2361 31.3567C35.4622 31.2057 35.728 31.125 35.9999 31.125C36.3645 31.1254 36.714 31.2704 36.9718 31.5282C37.2296 31.786 37.3746 32.1355 37.375 32.5001C37.375 32.772 37.2943 33.0378 37.1433 33.2639C36.9922 33.49 36.7774 33.6663 36.5262 33.7703C36.2749 33.8744 35.9985 33.9016 35.7318 33.8486C35.465 33.7955 35.22 33.6646 35.0277 33.4723C34.8354 33.28 34.7045 33.035 34.6514 32.7683C34.5984 32.5015 34.6256 32.2251 34.7297 31.9738C34.8337 31.7226 35.01 31.5078 35.2361 31.3567Z" fill="black" stroke="black" stroke-width="0.25"/>
<path d="M28.625 39.7247V39.7997V41.5V41.7083L28.4412 41.6103L23.8093 39.1406L28.625 39.7247ZM28.625 39.7247L28.5588 39.6894M28.625 39.7247L28.5588 39.6894M28.5588 39.6894L24.6333 37.5969L24.6332 37.5969M28.5588 39.6894L24.6332 37.5969M24.6332 37.5969C23.5726 37.0328 22.6857 36.1905 22.0677 35.1604C21.4496 34.1303 21.1237 32.9514 21.125 31.7501V31.75M24.6332 37.5969L21.125 31.75M21.125 31.75V22.125M21.125 31.75V22.125M21.125 22.125H35.875V26.5V26.625H36H37.5H37.625V26.5V22V21.9999C37.6246 21.5691 37.4532 21.156 37.1486 20.8514C36.844 20.5468 36.4309 20.3754 36.0001 20.375H36L21 20.375L20.9999 20.375C20.5691 20.3754 20.156 20.5468 19.8514 20.8514C19.5468 21.156 19.3754 21.5691 19.375 21.9999V22V31.7499V31.75H19.5C19.4983 33.2458 19.904 34.7137 20.6736 35.9964L21.125 22.125Z" fill="black" stroke="black" stroke-width="0.25"/>
</svg>
