<svg width="40" height="40" viewBox="0 0 40 40" fill="none" xmlns="http://www.w3.org/2000/svg">
<rect x="14" y="5" width="22" height="32" rx="4" fill="#282B2F"/>
<rect x="12.5" y="4.5" width="22" height="31" rx="2.5" fill="#AFE000" stroke="#282B2F"/>
<path d="M17.5 30H29.5" stroke="#282B2F" stroke-linecap="round"/>
<path d="M21.5 27H29.5" stroke="#282B2F" stroke-linecap="round"/>
<path d="M29.7368 19.8624C29.0004 19.0645 28.1067 18.4278 27.1121 17.9922C26.1175 17.5567 25.0435 17.3319 23.9578 17.3319C22.872 17.3319 21.798 17.5567 20.8034 17.9922C19.8088 18.4278 18.9151 19.0645 18.1787 19.8624C18.0647 19.9879 18.001 20.1511 18 20.3207V23.0704C18.0024 23.2511 18.0759 23.4236 18.2046 23.5506C18.3332 23.6775 18.5067 23.7487 18.6874 23.7487H29.2281C29.4104 23.7487 29.5852 23.6762 29.7142 23.5473C29.8431 23.4184 29.9155 23.2435 29.9155 23.0612V20.3115C29.9123 20.1451 29.8488 19.9855 29.7368 19.8624Z" fill="#F6FEDB"/>
<path d="M23.9578 16.416C25.7295 16.416 27.1658 14.9798 27.1658 13.208C27.1658 11.4363 25.7295 10 23.9578 10C22.186 10 20.7498 11.4363 20.7498 13.208C20.7498 14.9798 22.186 16.416 23.9578 16.416Z" fill="#F6FEDB"/>
<rect x="4.5" y="12.5" width="15" height="15" rx="2.5" fill="#F6FEDB" stroke="#282B2F"/>
<path d="M7 18.7196C7 20.9794 9.01 22.1835 10.481 23.2616C11 23.6417 11.5 24 12 24C12.5 24 13 23.6422 13.519 23.2611C14.9905 22.1839 17 20.9794 17 18.72C17 16.4606 14.25 14.8569 12 17.0299C9.75 14.8569 7 16.4597 7 18.7196Z" fill="#AFE000"/>
</svg>
