<svg width="80" height="80" viewBox="0 0 80 80" fill="none" xmlns="http://www.w3.org/2000/svg">
<rect width="80" height="80" rx="12" fill="#FFFAEF"/>
<path d="M54.3309 49.9401L53.9962 49.6448C53.0471 48.7987 52.2161 47.8287 51.5257 46.7609C50.7713 45.2874 50.3195 43.6776 50.197 42.0267V37.1644C50.2035 34.5715 49.2629 32.0655 47.552 30.1171C45.8411 28.1688 43.4776 26.9123 40.9056 26.5837V25.314C40.9056 24.9655 40.7672 24.6313 40.5207 24.3849C40.2743 24.1384 39.9401 24 39.5916 24C39.2431 24 38.9089 24.1384 38.6625 24.3849C38.4161 24.6313 38.2776 24.9655 38.2776 25.314V26.6034C35.7287 26.9557 33.3937 28.2198 31.7053 30.1616C30.0168 32.1033 29.0893 34.5912 29.0945 37.1644V42.0267C28.972 43.6776 28.5202 45.2874 27.7658 46.7609C27.0875 47.8263 26.2699 48.7961 25.3346 49.6448L25 49.9401V52.7157H54.3309V49.9401Z" fill="#F4AA1B"/>
<path d="M37.0767 53.7491C37.163 54.373 37.4721 54.9446 37.947 55.3584C38.4219 55.7721 39.0305 56 39.6603 56C40.2902 56 40.8987 55.7721 41.3736 55.3584C41.8485 54.9446 42.1577 54.373 42.244 53.7491H37.0767Z" fill="#F4AA1B"/>
</svg>
