<svg width="24" height="21" viewBox="0 0 24 21" fill="none" xmlns="http://www.w3.org/2000/svg">
<path d="M24 0V3.78213C22.9153 3.91721 21.9887 4.34495 21.2203 5.06536C20.4972 5.78577 19.9322 6.70879 19.5254 7.83442C19.1638 8.91503 18.983 10.0857 18.983 11.3464H23.5932V20.6667H14.1017V12.2244C14.1017 9.52288 14.5537 7.31663 15.4576 5.60566C16.4068 3.8947 17.6271 2.58896 19.1186 1.68846C20.6102 0.787946 22.2373 0.225127 24 0ZM9.83051 0V3.78213C8.79096 3.91721 7.887 4.34495 7.11864 5.06536C6.39548 5.78577 5.83051 6.70879 5.42373 7.83442C5.06215 8.91503 4.88136 10.0857 4.88136 11.3464H9.49152V20.6667H0V12.2244C0 9.52288 0.451977 7.31663 1.35593 5.60566C2.30508 3.8947 3.52542 2.58896 5.01695 1.68846C6.50847 0.787946 8.11299 0.225127 9.83051 0Z" fill="black"/>
</svg>
