<svg width="103" height="103" viewBox="0 0 103 103" fill="none" xmlns="http://www.w3.org/2000/svg">
<g filter="url(#filter0_b_6337_10514)">
<path d="M100.087 51.326C100.087 78.2552 78.2562 100.086 51.327 100.086C24.3978 100.086 2.56738 78.2552 2.56738 51.326C2.56738 24.3968 24.3978 2.56641 51.327 2.56641C78.2562 2.56641 100.087 24.3968 100.087 51.326Z" fill="#D5FF3F"/>
<path fill-rule="evenodd" clip-rule="evenodd" d="M102.652 51.3259C102.652 79.6725 79.6725 102.652 51.3259 102.652C22.9794 102.652 0 79.6725 0 51.3259C0 22.9794 22.9794 0 51.3259 0C79.6725 0 102.652 22.9794 102.652 51.3259ZM51.3259 100.086C78.2551 100.086 100.086 78.2551 100.086 51.3259C100.086 24.3967 78.2551 2.5663 51.3259 2.5663C24.3967 2.5663 2.5663 24.3967 2.5663 51.3259C2.5663 78.2551 24.3967 100.086 51.3259 100.086Z" fill="#282B2F"/>
</g>
<path d="M43.1133 33.1049C43.1133 40.9002 40.126 47.2195 36.4409 47.2195C32.7559 47.2195 29.7686 40.9002 29.7686 33.1049C29.7686 25.3096 32.7559 18.9902 36.4409 18.9902C40.126 18.9902 43.1133 25.3096 43.1133 33.1049Z" fill="#282B2F"/>
<path d="M72.8819 33.1049C72.8819 40.9002 69.8945 47.2195 66.2095 47.2195C62.5244 47.2195 59.5371 40.9002 59.5371 33.1049C59.5371 25.3096 62.5244 18.9902 66.2095 18.9902C69.8945 18.9902 72.8819 25.3096 72.8819 33.1049Z" fill="#282B2F"/>
<path fill-rule="evenodd" clip-rule="evenodd" d="M21.1958 60.32C22.1257 60.2807 23.0279 60.3355 23.8249 60.5247C24.5144 60.6884 25.206 60.2621 25.3697 59.5725C25.5333 58.883 25.107 58.1914 24.4175 58.0278C22.8449 57.6545 21.1246 57.6922 19.6003 57.8816C17.6803 58.1201 15.9367 58.6169 14.9455 58.9883C14.2819 59.237 13.9456 59.9765 14.1942 60.6401C14.4429 61.3037 15.1825 61.6401 15.8461 61.3914C16.4542 61.1635 17.4665 60.8589 18.6471 60.6307C19.3511 65.1937 21.702 71.4634 26.3412 76.8027C31.5008 82.7409 39.4803 87.5107 51.0673 87.5107C51.776 87.5107 52.3505 86.9363 52.3505 86.2276C52.3505 85.5189 51.776 84.9445 51.0673 84.9445C40.2762 84.9445 32.9863 80.5378 28.2784 75.1195C23.9987 70.194 21.844 64.4179 21.1958 60.32Z" fill="#282B2F"/>
<path fill-rule="evenodd" clip-rule="evenodd" d="M81.7085 60.32C80.7786 60.2807 79.8764 60.3355 79.0794 60.5247C78.3899 60.6884 77.6983 60.2621 77.5346 59.5725C77.371 58.883 77.7973 58.1914 78.4868 58.0278C80.0594 57.6545 81.7797 57.6922 83.304 57.8816C85.224 58.1201 86.9676 58.6169 87.9588 58.9883C88.6224 59.237 88.9587 59.9765 88.71 60.6401C88.4614 61.3037 87.7218 61.6401 87.0582 61.3914C86.4501 61.1635 85.4378 60.8589 84.2572 60.6307C83.5532 65.1937 81.2023 71.4634 76.5631 76.8027C71.4035 82.7409 63.424 87.5107 51.837 87.5107C51.1283 87.5107 50.5538 86.9363 50.5538 86.2276C50.5538 85.5189 51.1283 84.9445 51.837 84.9445C62.6281 84.9445 69.918 80.5378 74.6259 75.1195C78.9056 70.194 81.0603 64.4179 81.7085 60.32Z" fill="#282B2F"/>
<defs>
<filter id="filter0_b_6337_10514" x="-12" y="-12" width="126.652" height="126.652" filterUnits="userSpaceOnUse" color-interpolation-filters="sRGB">
<feFlood flood-opacity="0" result="BackgroundImageFix"/>
<feGaussianBlur in="BackgroundImageFix" stdDeviation="6"/>
<feComposite in2="SourceAlpha" operator="in" result="effect1_backgroundBlur_6337_10514"/>
<feBlend mode="normal" in="SourceGraphic" in2="effect1_backgroundBlur_6337_10514" result="shape"/>
</filter>
</defs>
</svg>
