<svg width="56" height="56" viewBox="0 0 56 56" fill="none" xmlns="http://www.w3.org/2000/svg">
<rect width="56" height="56" rx="28" fill="white"/>
<path d="M18 19H24C25.0609 19 26.0783 19.4214 26.8284 20.1716C27.5786 20.9217 28 21.9391 28 23V37C28 36.2044 27.6839 35.4413 27.1213 34.8787C26.5587 34.3161 25.7956 34 25 34H18V19Z" stroke="black" stroke-width="2" stroke-linecap="round" stroke-linejoin="round"/>
<path d="M38 19H32C30.9391 19 29.9217 19.4214 29.1716 20.1716C28.4214 20.9217 28 21.9391 28 23V37C28 36.2044 28.3161 35.4413 28.8787 34.8787C29.4413 34.3161 30.2044 34 31 34H38V19Z" stroke="black" stroke-width="2" stroke-linecap="round" stroke-linejoin="round"/>
</svg>
